<svg id="conun_logo" xmlns="http://www.w3.org/2000/svg" width="64" height="80" viewBox="0 0 64 80">
  <path id="패스_1" data-name="패스 1" d="M197.994,91.871C210.5,95.606,219.6,106.527,219.6,119.062c0,16.746-14.224,28.639-31.778,28.639a33.283,33.283,0,0,1-23.756-9.622c-.673-.675-1.259-1.375-2.116-2.242,5.563,7.91,15.619,13.05,26.824,13.05,17.921,0,32.449-12.532,32.449-29.611,0-16.041-13.372-28.858-30.243-29.694-.752-.035-1.509-.044-2.268-.035a26.507,26.507,0,0,0-10.691,2.026,35.288,35.288,0,0,1,9.527-1.153A33.02,33.02,0,0,1,197.994,91.871Z" transform="translate(-157.227 -68.887)" fill="#c3ab41"/>
  <path id="패스_2" data-name="패스 2" d="M196.3,92.784c11.589,3.482,19.975,13.651,19.975,25.332,0,15.669-13.134,26.673-29.4,26.673a30.773,30.773,0,0,1-22.02-8.956c-.622-.633-1.17-1.282-1.968-2.092,5.166,7.368,14.485,12.154,24.871,12.154,16.611,0,30.076-11.562,30.076-27.576,0-14.85-12.4-26.915-28.029-27.694-.7-.033-1.4-.041-2.111-.033a25.4,25.4,0,0,0-11.572,2.523,41.019,41.019,0,0,1,10.5-1.684A30.757,30.757,0,0,1,196.3,92.784Z" transform="translate(-156.409 -67.999)" fill="#c3ab41"/>
  <path id="패스_3" data-name="패스 3" d="M194.634,93.752c10.673,3.23,18.288,12.665,18.288,23.5,0,14.441-11.985,24.752-26.959,24.752a28.208,28.208,0,0,1-20.271-8.316c-.566-.581-1.076-1.186-1.809-1.935,4.755,6.834,13.33,11.274,22.892,11.274,15.287,0,27.684-10.87,27.684-25.583,0-13.9-11.413-25.015-25.8-25.735-.643-.035-1.288-.028-1.938-.035-4.844-.037-9.621,1.412-12.03,2.947a30.769,30.769,0,0,1,19.945-.866Z" transform="translate(-155.54 -67.081)" fill="#c3ab41"/>
  <path id="패스_4" data-name="패스 4" d="M192.994,94.669c9.767,2.975,16.633,11.686,16.633,21.676,0,13.385-10.868,22.84-24.571,22.84a25.748,25.748,0,0,1-18.556-7.67c-.525-.544-.982-1.1-1.655-1.789,4.352,6.308,12.2,10.4,20.95,10.4,14,0,25.345-10.06,25.345-23.6,0-12.874-10.446-23.093-23.623-23.75-.583-.031-1.173-.028-1.771-.031a24.7,24.7,0,0,0-12.037,3.241,27.99,27.99,0,0,1,11.128-2.475A26.87,26.87,0,0,1,192.994,94.669Z" transform="translate(-154.699 -66.17)" fill="#c3ab41"/>
  <path id="패스_5" data-name="패스 5" d="M191.326,95.635a20.8,20.8,0,0,1,14.9,19.765c0,12.291-9.7,20.818-22.078,20.818a23.125,23.125,0,0,1-16.753-6.991c-.469-.49-.892-1-1.5-1.632a22.865,22.865,0,0,0,18.923,9.49c12.635,0,22.892-8.976,22.892-21.524,0-11.806-9.441-21.066-21.336-21.672-.532-.028-1.063-.006-1.6-.028-4.242-.137-9.3,1.5-11.763,3.506C175.557,95.5,181,94.612,183.96,94.58A24.153,24.153,0,0,1,191.326,95.635Z" transform="translate(-153.773 -65.225)" fill="#c3ab41"/>
  <path id="패스_6" data-name="패스 6" d="M189.706,96.548a18.775,18.775,0,0,1,13.315,17.993c0,11.213-8.615,18.955-19.782,18.955a20.781,20.781,0,0,1-15.109-6.362c-.424-.455-.8-.908-1.351-1.487a20.571,20.571,0,0,0,17.064,8.637c11.4,0,20.642-8.151,20.642-19.6,0-10.819-8.508-19.2-19.237-19.752-.476-.024-.954-.011-1.441-.024-3.82-.124-8.776,1.558-10.963,3.471,2.217-1.709,7.05-2.751,10.219-2.786A21.385,21.385,0,0,1,189.706,96.548Z" transform="translate(-153.008 -64.338)" fill="#c3ab41"/>
  <path id="패스_7" data-name="패스 7" d="M188.077,97.484a16.711,16.711,0,0,1,11.666,16.108c0,10-7.522,16.968-17.383,16.968a18.231,18.231,0,0,1-13.353-5.7c-.375-.4-.708-.816-1.186-1.328a18.066,18.066,0,0,0,15.07,7.731c10.076,0,18.239-7.25,18.239-17.541a17.647,17.647,0,0,0-17-17.693c-.42-.024-.847-.008-1.275-.024-3.383-.109-8.063,1.574-10,3.289,1.964-1.528,6.54-2.636,9.347-2.666A18.753,18.753,0,0,1,188.077,97.484Z" transform="translate(-152.097 -63.4)" fill="#c3ab41"/>
  <path id="패스_8" data-name="패스 8" d="M186.511,98.484A14.628,14.628,0,0,1,196.6,112.705c0,8.872-6.461,14.981-15.111,14.981a15.924,15.924,0,0,1-11.7-5.03c-.333-.353-.626-.72-1.05-1.175a15.823,15.823,0,0,0,13.218,6.826c8.834,0,15.994-6.268,15.994-15.492a15.412,15.412,0,0,0-14.905-15.7c-.371-.02-.742-.007-1.121-.02a15.082,15.082,0,0,0-8.761,2.988c1.715-1.354,5.732-2.327,8.193-2.359A16.5,16.5,0,0,1,186.511,98.484Z" transform="translate(-151.288 -62.475)" fill="#c3ab41"/>
  <path id="패스_9" data-name="패스 9" d="M182.67,135.394c-12.509-3.735-21.615-14.652-21.615-27.187,0-16.75,14.228-28.643,31.778-28.643a33.3,33.3,0,0,1,23.756,9.622c.669.675,1.263,1.375,2.116,2.24-5.563-7.91-15.619-13.048-26.824-13.048-17.921,0-32.449,12.532-32.449,29.613,0,16.043,13.377,28.859,30.243,29.692.75.033,1.509.052,2.27.033a26.474,26.474,0,0,0,10.689-2.024,35.319,35.319,0,0,1-9.527,1.154A33.011,33.011,0,0,1,182.67,135.394Z" transform="translate(-159.432 -78.378)" fill="#c3ab41"/>
  <path id="패스_10" data-name="패스 10" d="M182.342,132.626c-11.591-3.482-19.969-13.653-19.969-25.332,0-15.669,13.126-26.676,29.392-26.676a30.76,30.76,0,0,1,22.02,8.963c.619.633,1.17,1.278,1.968,2.089-5.166-7.365-14.485-12.154-24.869-12.154-16.613,0-30.078,11.566-30.078,27.577,0,14.852,12.4,26.913,28.033,27.694.7.035,1.4.039,2.1.035a25.286,25.286,0,0,0,11.572-2.529,40.638,40.638,0,0,1-10.493,1.685A30.758,30.758,0,0,1,182.342,132.626Z" transform="translate(-158.232 -77.412)" fill="#c3ab41"/>
  <path id="패스_11" data-name="패스 11" d="M181.968,129.849c-10.673-3.23-18.288-12.669-18.288-23.5,0-14.441,11.988-24.753,26.963-24.753a28.208,28.208,0,0,1,20.267,8.319c.572.577,1.08,1.18,1.805,1.931-4.752-6.83-13.325-11.279-22.884-11.279-15.287,0-27.688,10.876-27.688,25.592,0,13.888,11.415,25.012,25.8,25.731.643.035,1.288.03,1.935.035a24.286,24.286,0,0,0,12.037-2.947,30.819,30.819,0,0,1-19.949.87Z" transform="translate(-157.062 -76.517)" fill="#c3ab41"/>
  <path id="패스_12" data-name="패스 12" d="M181.611,127.105c-9.771-2.977-16.629-11.684-16.629-21.678,0-13.388,10.866-22.836,24.567-22.836a25.725,25.725,0,0,1,18.554,7.67c.523.538.984,1.1,1.657,1.785-4.352-6.3-12.2-10.4-20.946-10.4-14,0-25.349,10.062-25.349,23.611,0,12.865,10.448,23.088,23.619,23.744.587.035,1.181.028,1.771.035a24.752,24.752,0,0,0,12.041-3.247,27.926,27.926,0,0,1-11.128,2.475A26.875,26.875,0,0,1,181.611,127.105Z" transform="translate(-155.906 -75.602)" fill="#c3ab41"/>
  <path id="패스_13" data-name="패스 13" d="M181.186,124.227a20.79,20.79,0,0,1-14.9-19.761c0-12.293,9.7-20.821,22.076-20.821a23.131,23.131,0,0,1,16.753,6.991c.472.494.888,1,1.5,1.634a22.866,22.866,0,0,0-18.923-9.489c-12.633,0-22.884,8.969-22.884,21.524,0,11.8,9.432,21.066,21.33,21.669.53.026,1.061.009,1.6.026,4.242.139,9.3-1.5,11.763-3.5-2.536,1.867-7.974,2.755-10.944,2.788A24.3,24.3,0,0,1,181.186,124.227Z" transform="translate(-154.738 -74.636)" fill="#c3ab41"/>
  <path id="패스_14" data-name="패스 14" d="M180.892,121.549a18.775,18.775,0,0,1-13.315-17.989c0-11.216,8.62-18.958,19.778-18.958a20.772,20.772,0,0,1,15.113,6.364c.427.453.8.91,1.351,1.489a20.552,20.552,0,0,0-17.064-8.641c-11.4,0-20.642,8.153-20.642,19.6,0,10.819,8.508,19.2,19.237,19.758.476.02.954.006,1.441.02,3.824.126,8.777-1.559,10.965-3.471-2.219,1.713-7.051,2.751-10.223,2.79A21.442,21.442,0,0,1,180.892,121.549Z" transform="translate(-153.591 -73.758)" fill="#c3ab41"/>
  <path id="패스_15" data-name="패스 15" d="M180.474,118.718a16.7,16.7,0,0,1-11.662-16.108c0-10,7.514-16.964,17.377-16.964a18.232,18.232,0,0,1,13.349,5.7c.379.4.71.812,1.194,1.326a18.1,18.1,0,0,0-15.075-7.729c-10.073,0-18.239,7.246-18.239,17.541a17.648,17.648,0,0,0,17,17.7c.42.024.847,0,1.278.024,3.378.105,8.054-1.576,9.992-3.289-1.964,1.528-6.536,2.627-9.34,2.662A18.626,18.626,0,0,1,180.474,118.718Z" transform="translate(-152.45 -72.801)" fill="#c3ab41"/>
  <path id="패스_16" data-name="패스 16" d="M180.125,115.86a14.632,14.632,0,0,1-10.089-14.221c0-8.876,6.459-14.985,15.1-14.985a15.934,15.934,0,0,1,11.705,5.034c.336.357.624.72,1.048,1.175a15.82,15.82,0,0,0-13.218-6.828c-8.826,0-15.994,6.27-15.994,15.5a15.414,15.414,0,0,0,14.9,15.7c.371.02.742,0,1.121.02a15.122,15.122,0,0,0,8.761-2.988c-1.715,1.351-5.732,2.327-8.189,2.353A16.29,16.29,0,0,1,180.125,115.86Z" transform="translate(-151.348 -71.87)" fill="#c3ab41"/>
</svg>
