<svg xmlns="http://www.w3.org/2000/svg" width="182" height="69.383" viewBox="0 0 182 69.383">
  <g id="integration_title" transform="translate(-124.29 -425.5)">
    <g id="그룹_197" data-name="그룹 197" transform="translate(0)">
      <path id="패스_1248" data-name="패스 1248" d="M499.177,434.61c-1.013-.674-2.145-1.164-3.216-1.755a13.366,13.366,0,0,1-2.03-1.224,2.049,2.049,0,0,1,.262-3.219c1.528-1.026,4.069-.444,4.331,1.643a.087.087,0,0,0,.086.08h2.308a.093.093,0,0,0,.093-.092.09.09,0,0,0,0-.01,4.587,4.587,0,0,0-1.688-3.407,5.415,5.415,0,0,0-3.28-1.125c-6.115,0-6.671,6.473-3.382,8.516.384.237,3.609,1.857,4.75,2.557a2.35,2.35,0,0,1,1,3.024,2.971,2.971,0,0,1-2.791,1.509,2.757,2.757,0,0,1-2.618-1.848,3.4,3.4,0,0,1-.09-.732.093.093,0,0,0-.093-.086h-2.512a.1.1,0,0,0-.093.1,4.039,4.039,0,0,0,1.675,3.737,6.039,6.039,0,0,0,3.724,1.227c3.417,0,5.2-1.937,5.552-3.945A4.586,4.586,0,0,0,499.177,434.61Z" transform="translate(-235.353)" fill="#161616"/>
      <path id="패스_1249" data-name="패스 1249" d="M154.989,426.47h-2.317a.086.086,0,0,0-.086.064l-2.065,6.78a.089.089,0,0,1-.173,0l-2.062-6.78a.093.093,0,0,0-.089-.064h-3.813a.093.093,0,0,0-.093.089v17.322a.093.093,0,0,0,.093.093H146.9a.089.089,0,0,0,.089-.089V430.721a.093.093,0,0,1,.179-.026l2.078,6.825.144.476a.092.092,0,0,0,.09.064h1.918a.092.092,0,0,0,.089-.064l.144-.476L153.7,430.7a.093.093,0,0,1,.179.026v13.16a.089.089,0,0,0,.086.093h2.516a.093.093,0,0,0,.093-.093h0V426.559a.093.093,0,0,0-.093-.089Z" transform="translate(0 -0.66)" fill="#161616"/>
      <path id="패스_1250" data-name="패스 1250" d="M380.318,426.47a.093.093,0,0,0-.086.064l-2.062,6.78a.093.093,0,0,1-.176,0l-2.062-6.78a.09.09,0,0,0-.086-.064h-3.813a.093.093,0,0,0-.093.09v17.322a.093.093,0,0,0,.093.093h2.512a.093.093,0,0,0,.09-.093v-13.16a.093.093,0,0,1,.179-.026l2.078,6.825.144.476a.093.093,0,0,0,.086.064h1.918a.087.087,0,0,0,.086-.064l.147-.476,2.075-6.825a.093.093,0,0,1,.179.026v13.16a.093.093,0,0,0,.093.093h2.512a.093.093,0,0,0,.09-.093V426.56a.093.093,0,0,0-.09-.09Z" transform="translate(-154.882 -0.66)" fill="#161616"/>
      <path id="패스_1251" data-name="패스 1251" d="M271.63,426.47H259.8a.093.093,0,0,0-.093.09v2.167a.093.093,0,0,0,.093.09h4.581v15.065a.093.093,0,0,0,.093.093h2.512a.093.093,0,0,0,.089-.093V428.816h4.552a.093.093,0,0,0,.093-.09V426.56A.093.093,0,0,0,271.63,426.47Z" transform="translate(-78.526 -0.66)" fill="#161616"/>
      <path id="패스_1252" data-name="패스 1252" d="M320.928,443.852h2.282a.09.09,0,0,0,.09-.089.091.091,0,0,0,0-.026l-4.7-17.379a.093.093,0,0,0-.09-.067h-3.28a.092.092,0,0,0-.089.067l-4.715,17.379a.092.092,0,0,0,.067.112l.022,0H312.8a.093.093,0,0,0,.086-.07l1.371-5.05a.09.09,0,0,1,.086-.067h5.044a.093.093,0,0,1,.086.067l1.365,5.047A.089.089,0,0,0,320.928,443.852Zm-5.99-7.649,1.835-6.767a.093.093,0,0,1,.176,0l1.835,6.767a.089.089,0,0,1-.06.111.091.091,0,0,1-.026,0h-3.67a.093.093,0,0,1-.092-.093A.1.1,0,0,1,314.938,436.2Z" transform="translate(-113.027 -0.537)" fill="#161616"/>
      <path id="패스_1253" data-name="패스 1253" d="M442.638,443.852h2.279a.093.093,0,0,0,.092-.093.1.1,0,0,0,0-.022l-4.715-17.379a.09.09,0,0,0-.089-.067h-3.267a.092.092,0,0,0-.089.067l-4.712,17.379a.093.093,0,0,0,.067.113l.019,0H434.5a.09.09,0,0,0,.086-.07l1.371-5.05a.092.092,0,0,1,.09-.067h5.041a.09.09,0,0,1,.086.067l1.371,5.05A.093.093,0,0,0,442.638,443.852Zm-5.99-7.649,1.835-6.767a.093.093,0,0,1,.176,0l1.835,6.767a.092.092,0,0,1-.067.112l-.022,0h-3.67a.089.089,0,0,1-.09-.089A.091.091,0,0,1,436.648,436.2Z" transform="translate(-195.833 -0.537)" fill="#161616"/>
      <path id="패스_1254" data-name="패스 1254" d="M208.725,441.414v-5.377a.086.086,0,0,1,.083-.09h6.681a.093.093,0,0,0,.09-.093v-2.164a.093.093,0,0,0-.09-.093h-6.674a.089.089,0,0,1-.09-.09v-4.6a.089.089,0,0,1,.086-.093h7.6a.093.093,0,0,0,.093-.09V426.56a.093.093,0,0,0-.093-.09h-10.29a.089.089,0,0,0-.09.09v17.322a.089.089,0,0,0,.086.093h10.619a.093.093,0,0,0,.093-.093h0V441.6a.093.093,0,0,0-.093-.093h-7.921a.086.086,0,0,1-.09-.083Z" transform="translate(-42.005 -0.66)" fill="#161616"/>
      <path id="패스_1255" data-name="패스 1255" d="M560.815,443.817l-8.675-8.966a.089.089,0,0,1,0-.127h0l7.8-8.084a.09.09,0,0,0-.064-.153h-3.193a.094.094,0,0,0-.067.029l-6.623,6.876a.093.093,0,0,1-.131,0,.094.094,0,0,1-.029-.067V426.56a.089.089,0,0,0-.09-.09h-2.512a.093.093,0,0,0-.093.09v17.322a.093.093,0,0,0,.093.093h2.512a.089.089,0,0,0,.09-.09v-7.627a.093.093,0,0,1,.1-.09.092.092,0,0,1,.061.026l7.5,7.752a.093.093,0,0,0,.064.029h3.2a.093.093,0,0,0,.061-.157Z" transform="translate(-274.079 -0.66)" fill="#161616"/>
    </g>
    <text id="integration" transform="translate(215.29 468.5)" fill="#161616" font-size="20" font-family="IBMPlexMono-SemiBold, IBM Plex Mono" font-weight="600" letter-spacing="0.24em"><tspan x="-90" y="0">INTEGRATION</tspan></text>
    <g id="그룹_196" data-name="그룹 196" transform="translate(-47 1)">
      <g id="logo_1r" transform="translate(225.095 476.18)">
        <path id="패스_1257" data-name="패스 1257" d="M1.156,0H2.4V-6.953c0-.255-.034-.833-.034-.85.017.051.238.612.357.85L5.9,0h.918L10-6.953c.1-.238.323-.8.357-.85,0,.017-.034.6-.034.85V0h1.309V-10.2H10.37L6.426-1.734,2.482-10.2H1.156ZM20.111,0V-5.8h-1.1l-.068.918a2.793,2.793,0,0,0-2.244-1.139,2.922,2.922,0,0,0-2.822,3.111A2.917,2.917,0,0,0,16.694.221,2.747,2.747,0,0,0,18.938-.918L19.006,0ZM16.983-5.066A2,2,0,0,1,18.938-2.89,1.994,1.994,0,0,1,16.983-.731a1.947,1.947,0,0,1-1.87-2.159A1.963,1.963,0,0,1,16.983-5.066ZM28.305,0V-3.485c0-1.445-.612-2.533-2.176-2.533a2.927,2.927,0,0,0-2.346,1.224l-.085-1H22.593V0h1.241V-3.315a1.923,1.923,0,0,1,1.887-1.7c.884,0,1.343.493,1.343,1.6V0Zm8.4,0V-5.8H35.6l-.068.918a2.793,2.793,0,0,0-2.244-1.139,2.922,2.922,0,0,0-2.822,3.111A2.917,2.917,0,0,0,33.286.221,2.747,2.747,0,0,0,35.53-.918L35.6,0ZM33.575-5.066A2,2,0,0,1,35.53-2.89,1.994,1.994,0,0,1,33.575-.731a1.947,1.947,0,0,1-1.87-2.159A1.963,1.963,0,0,1,33.575-5.066ZM45.1-.1V-5.8H44l-.068.918a2.747,2.747,0,0,0-2.244-1.139A2.917,2.917,0,0,0,38.862-2.89,2.922,2.922,0,0,0,41.684.221,2.7,2.7,0,0,0,43.86-.833V.085c0,1.717-.969,2.3-1.938,2.3A4.106,4.106,0,0,1,39.389,1.6V2.669a4.84,4.84,0,0,0,2.4.714C43.3,3.383,45.1,2.754,45.1-.1ZM43.928-2.907A2,2,0,0,1,41.973-.731,1.963,1.963,0,0,1,40.1-2.907a1.947,1.947,0,0,1,1.87-2.159A1.994,1.994,0,0,1,43.928-2.907ZM52.7-3.689a2.442,2.442,0,0,0-2.584-2.329,2.914,2.914,0,0,0-2.89,3.111A2.945,2.945,0,0,0,50.286.221a3.436,3.436,0,0,0,2.312-.8v-.986a3.036,3.036,0,0,1-1.955.816A1.98,1.98,0,0,1,48.45-3.06h4.165A2.666,2.666,0,0,0,52.7-3.689Zm-1.207-.323a.643.643,0,0,1-.017.136H48.552a1.581,1.581,0,0,1,1.581-1.241C51.034-5.117,51.493-4.573,51.493-4.012Zm6.936-.748V-6.018a2.739,2.739,0,0,0-2.261,1.224l-.085-1h-1.1V0h1.241V-3.366C56.219-4.335,57.324-4.964,58.429-4.76Z" transform="translate(55.195 14.32)" fill="#929292"/>
        <g id="conun_logo" transform="translate(0 4.081)">
          <path id="패스_39" data-name="패스 39" d="M207.668,93.384a2.708,2.708,0,0,1,0-5.415,2.6,2.6,0,0,1,2.106,1.1l1.9-1.456a4.943,4.943,0,0,0-4-2.067,5.137,5.137,0,0,0,0,10.271,4.944,4.944,0,0,0,3.988-2.043L209.764,92.3A2.6,2.6,0,0,1,207.668,93.384Z" transform="translate(-202.669 -85.541)" fill="#929292"/>
          <g id="그룹_56" data-name="그룹 56" transform="translate(9.353)">
            <path id="패스_40" data-name="패스 40" d="M261.666,85.542H264l3.686,5.822V85.542h2.371V95.813h-2.371l-3.669-5.843v5.843h-2.356Z" transform="translate(-249.262 -85.541)" fill="#929292"/>
            <path id="패스_41" data-name="패스 41" d="M316.288,85.542h2.338l3.686,5.822V85.542h2.372V95.813h-2.372l-3.669-5.742v5.742h-2.356Z" transform="translate(-282.679 -85.541)" fill="#929292"/>
            <path id="패스_42" data-name="패스 42" d="M234.715,85.542a4.947,4.947,0,0,0-4,2.058,5.219,5.219,0,0,0-.006,6.144,4.943,4.943,0,0,0,4,2.069,5.137,5.137,0,0,0,0-10.271Zm0,7.842a2.708,2.708,0,1,1,2.636-2.706A2.671,2.671,0,0,1,234.715,93.384Z" transform="translate(-229.715 -85.541)" fill="#929292"/>
            <path id="패스_43" data-name="패스 43" d="M294.976,85.54l-.01,6.429a1.57,1.57,0,0,1-.542,1.173,1.783,1.783,0,0,1-1.246.368h0a1.783,1.783,0,0,1-1.246-.368,1.57,1.57,0,0,1-.542-1.173l-.01-6.429h-2.4v6.3a5.4,5.4,0,0,0,.2,1.605,3.314,3.314,0,0,0,.734,1.253,3.771,3.771,0,0,0,1.263.822,4.454,4.454,0,0,0,1.788.3h.422a4.561,4.561,0,0,0,1.788-.3,3.771,3.771,0,0,0,1.263-.822,3.31,3.31,0,0,0,.734-1.253,5.393,5.393,0,0,0,.2-1.605v-6.3Z" transform="translate(-265.971 -85.54)" fill="#929292"/>
          </g>
        </g>
      </g>
      <path id="integration-2" data-name="integration" d="M-15.34-6.708h1.209l.65,5.642h.117l1-5.642h1.378L-10-1.066h.117l.663-5.642H-8.06L-9,0h-1.742l-.9-5.2h-.117l-.91,5.2H-14.4ZM-3.484-7.93a1.042,1.042,0,0,1-.76-.221A.753.753,0,0,1-4.459-8.7V-8.97a.753.753,0,0,1,.214-.546A1.02,1.02,0,0,1-3.5-9.737a1.042,1.042,0,0,1,.76.221.753.753,0,0,1,.214.546V-8.7a.753.753,0,0,1-.214.546A1.02,1.02,0,0,1-3.484-7.93Zm-3,6.773H-4.2V-5.551H-6.487V-6.708h3.7v5.551H-.637V0h-5.85ZM4.3,0A1.643,1.643,0,0,1,3-.473,1.788,1.788,0,0,1,2.587-1.7V-5.551H.52V-6.708H1.989a.761.761,0,0,0,.533-.15A.736.736,0,0,0,2.678-7.4V-9.074H4v2.366h2.86v1.157H4v4.394h2.86V0ZM8.892-9.62h1.417v4.056h.065a2.651,2.651,0,0,1,.266-.5,1.722,1.722,0,0,1,.4-.416,1.907,1.907,0,0,1,.546-.28,2.3,2.3,0,0,1,.728-.1,2.145,2.145,0,0,1,1.638.663,2.646,2.646,0,0,1,.624,1.885V0H13.156V-4.108q0-1.6-1.391-1.6a2,2,0,0,0-.533.071,1.539,1.539,0,0,0-.468.214,1.068,1.068,0,0,0-.332.364,1.022,1.022,0,0,0-.123.507V0H8.892Z" transform="translate(202.29 489.5)" fill="#929292" opacity="0.5"/>
    </g>
  </g>
</svg>
