<svg xmlns="http://www.w3.org/2000/svg" width="75" height="37" viewBox="0 0 75 37"><defs><style>.a,.b{fill:#fff;}.a{font-size:16px;font-family:MrEavesModOT-Reg, Mr Eaves Mod OT;letter-spacing:0.02em;}</style></defs><g transform="translate(-50 -50)"><text class="a" transform="translate(50 83)"><tspan x="0" y="0">Manager</tspan></text><g transform="translate(50 50)"><path class="b" d="M210.018,97.072a3.982,3.982,0,0,1,0-7.961,3.817,3.817,0,0,1,3.1,1.611l2.791-2.141a7.268,7.268,0,0,0-5.888-3.039,7.553,7.553,0,0,0,0,15.1,7.269,7.269,0,0,0,5.864-3L213.1,95.483A3.818,3.818,0,0,1,210.018,97.072Z" transform="translate(-202.669 -85.541)"/><g transform="translate(13.751)"><path class="b" d="M261.666,85.542H265.1l5.42,8.56v-8.56h3.487v15.1h-3.487l-5.394-8.591v8.591h-3.463Z" transform="translate(-243.617 -85.541)"/><path class="b" d="M316.288,85.542h3.438l5.42,8.56v-8.56h3.487v15.1h-3.487L319.751,92.2v8.442h-3.464Z" transform="translate(-267.384 -85.541)"/><path class="b" d="M237.067,85.542a7.273,7.273,0,0,0-5.877,3.025,7.674,7.674,0,0,0-.009,9.034,7.267,7.267,0,0,0,5.886,3.041,7.553,7.553,0,0,0,0-15.1Zm0,11.53a3.982,3.982,0,1,1,3.876-3.978A3.928,3.928,0,0,1,237.067,97.072Z" transform="translate(-229.715 -85.541)"/><path class="b" d="M297.8,85.54l-.015,9.452a2.309,2.309,0,0,1-.8,1.724,2.622,2.622,0,0,1-1.832.541h-.007a2.622,2.622,0,0,1-1.832-.541,2.309,2.309,0,0,1-.8-1.724L292.5,85.54h-3.525V94.8a7.941,7.941,0,0,0,.3,2.36A4.873,4.873,0,0,0,290.353,99a5.545,5.545,0,0,0,1.857,1.208,6.549,6.549,0,0,0,2.629.434c.1,0,.209,0,.31,0h.31a6.706,6.706,0,0,0,2.629-.434A5.544,5.544,0,0,0,299.946,99a4.867,4.867,0,0,0,1.079-1.842,7.929,7.929,0,0,0,.3-2.36V85.54Z" transform="translate(-255.5 -85.54)"/></g></g></g></svg>