<svg xmlns="http://www.w3.org/2000/svg" width="98.081" height="91" viewBox="0 0 98.081 91">
  <g id="metamask_logo" transform="translate(-31.3 -35)">
    <path id="패스_1219" data-name="패스 1219" d="M212.481,35.5,174.6,63.635l7.005-16.6Z" transform="translate(-88.435)" fill="#e2761b" stroke="#e2761b" stroke-linecap="round" stroke-linejoin="round" stroke-width="1"/>
    <g id="그룹_184" data-name="그룹 184" transform="translate(32.599 35.5)">
      <path id="패스_1220" data-name="패스 1220" d="M44.4,35.5,81.976,63.9,75.314,47.036Z" transform="translate(-40.403 -35.5)" fill="#e4761b" stroke="#e4761b" stroke-linecap="round" stroke-linejoin="round" stroke-width="1"/>
      <path id="패스_1221" data-name="패스 1221" d="M221.889,206.8,211.8,222.257l21.586,5.939,6.206-21.053Z" transform="translate(-144.072 -141.584)" fill="#e4761b" stroke="#e4761b" stroke-linecap="round" stroke-linejoin="round" stroke-width="1"/>
      <path id="패스_1222" data-name="패스 1222" d="M33.9,207.143,40.068,228.2l21.586-5.939L51.565,206.8Z" transform="translate(-33.9 -141.584)" fill="#e4761b" stroke="#e4761b" stroke-linecap="round" stroke-linejoin="round" stroke-width="1"/>
      <path id="패스_1223" data-name="패스 1223" d="M93.815,117.082l-6.015,9.1,21.434.952-.761-23.033Z" transform="translate(-67.28 -77.983)" fill="#e4761b" stroke="#e4761b" stroke-linecap="round" stroke-linejoin="round" stroke-width="1"/>
      <path id="패스_1224" data-name="패스 1224" d="M189.943,116.649,175.095,103.4l-.495,23.3,21.4-.952Z" transform="translate(-121.034 -77.55)" fill="#e4761b" stroke="#e4761b" stroke-linecap="round" stroke-linejoin="round" stroke-width="1"/>
      <path id="패스_1225" data-name="패스 1225" d="M106.8,223.062l12.868-6.282-11.117-8.68Z" transform="translate(-79.046 -142.389)" fill="#e4761b" stroke="#e4761b" stroke-linecap="round" stroke-linejoin="round" stroke-width="1"/>
      <path id="패스_1226" data-name="패스 1226" d="M177.9,216.78l12.906,6.282L189.017,208.1Z" transform="translate(-123.078 -142.389)" fill="#e4761b" stroke="#e4761b" stroke-linecap="round" stroke-linejoin="round" stroke-width="1"/>
    </g>
    <g id="그룹_185" data-name="그룹 185" transform="translate(60.353 109.891)">
      <path id="패스_1227" data-name="패스 1227" d="M190.806,237.182,177.9,230.9l1.028,8.414-.114,3.541Z" transform="translate(-150.831 -230.9)" fill="#d7c1b3" stroke="#d7c1b3" stroke-linecap="round" stroke-linejoin="round" stroke-width="1"/>
      <path id="패스_1228" data-name="패스 1228" d="M106.8,237.182l11.992,5.673-.076-3.541.952-8.414Z" transform="translate(-106.8 -230.9)" fill="#d7c1b3" stroke="#d7c1b3" stroke-linecap="round" stroke-linejoin="round" stroke-width="1"/>
    </g>
    <path id="패스_1229" data-name="패스 1229" d="M121.336,182.724l-10.736-3.16,7.576-3.464Z" transform="translate(-48.8 -87.072)" fill="#233447" stroke="#233447" stroke-linecap="round" stroke-linejoin="round" stroke-width="1"/>
    <path id="패스_1230" data-name="패스 1230" d="M179.7,182.724l3.16-6.624,7.614,3.464Z" transform="translate(-91.593 -87.072)" fill="#233447" stroke="#233447" stroke-linecap="round" stroke-linejoin="round" stroke-width="1"/>
    <g id="그룹_186" data-name="그룹 186" transform="translate(50.264 83.698)">
      <path id="패스_1231" data-name="패스 1231" d="M90.389,222.257,92.216,206.8l-11.916.343Z" transform="translate(-80.3 -189.782)" fill="#cd6116" stroke="#cd6116" stroke-linecap="round" stroke-linejoin="round" stroke-width="1"/>
      <path id="패스_1232" data-name="패스 1232" d="M207,206.8l1.827,15.457,10.089-15.114Z" transform="translate(-158.764 -189.782)" fill="#cd6116" stroke="#cd6116" stroke-linecap="round" stroke-linejoin="round" stroke-width="1"/>
      <path id="패스_1233" data-name="패스 1233" d="M196,162.1l-21.4.952,1.98,11,3.16-6.624,7.614,3.464Z" transform="translate(-138.699 -162.1)" fill="#cd6116" stroke="#cd6116" stroke-linecap="round" stroke-linejoin="round" stroke-width="1"/>
      <path id="패스_1234" data-name="패스 1234" d="M96.48,170.894l7.614-3.464,3.122,6.624,2.018-11L87.8,162.1Z" transform="translate(-84.945 -162.1)" fill="#cd6116" stroke="#cd6116" stroke-linecap="round" stroke-linejoin="round" stroke-width="1"/>
    </g>
    <g id="그룹_187" data-name="그룹 187" transform="translate(53.12 83.698)">
      <path id="패스_1235" data-name="패스 1235" d="M87.8,162.1l8.985,17.513-.3-8.718Z" transform="translate(-87.8 -162.1)" fill="#e4751f" stroke="#e4751f" stroke-linecap="round" stroke-linejoin="round" stroke-width="1"/>
      <path id="패스_1236" data-name="패스 1236" d="M207.481,170.894l-.381,8.718,9.023-17.513Z" transform="translate(-161.681 -162.1)" fill="#e4751f" stroke="#e4751f" stroke-linecap="round" stroke-linejoin="round" stroke-width="1"/>
      <path id="패스_1237" data-name="패스 1237" d="M140.818,164.6l-2.018,11,2.513,12.982.571-17.094Z" transform="translate(-119.384 -163.648)" fill="#e4751f" stroke="#e4751f" stroke-linecap="round" stroke-linejoin="round" stroke-width="1"/>
      <path id="패스_1238" data-name="패스 1238" d="M172.928,164.6l-1.028,6.853.457,17.132,2.551-12.982Z" transform="translate(-139.882 -163.648)" fill="#e4751f" stroke="#e4751f" stroke-linecap="round" stroke-linejoin="round" stroke-width="1"/>
    </g>
    <path id="패스_1239" data-name="패스 1239" d="M175.651,188.36,173.1,201.342l1.827,1.256,11.117-8.68.381-8.718Z" transform="translate(-87.506 -92.708)" fill="#f6851b" stroke="#f6851b" stroke-linecap="round" stroke-linejoin="round" stroke-width="1"/>
    <path id="패스_1240" data-name="패스 1240" d="M110.6,185.2l.3,8.718,11.117,8.68,1.827-1.256-2.513-12.982Z" transform="translate(-48.8 -92.708)" fill="#f6851b" stroke="#f6851b" stroke-linecap="round" stroke-linejoin="round" stroke-width="1"/>
    <path id="패스_1241" data-name="패스 1241" d="M134.782,253.073l.114-3.541-.952-.838H119.592l-.876.838.076,3.541L106.8,247.4l4.188,3.426,8.49,5.9h14.581l8.528-5.9,4.188-3.426Z" transform="translate(-46.447 -131.227)" fill="#c0ad9e" stroke="#c0ad9e" stroke-linecap="round" stroke-linejoin="round" stroke-width="1"/>
    <path id="패스_1242" data-name="패스 1242" d="M153.252,228.856l-1.827-1.256H140.879l-1.827,1.256-.952,8.414.876-.838h14.353l.952.838Z" transform="translate(-65.83 -118.965)" fill="#161616" stroke="#161616" stroke-linecap="round" stroke-linejoin="round" stroke-width="1"/>
    <g id="그룹_188" data-name="그룹 188" transform="translate(31.8 35.5)">
      <path id="패스_1243" data-name="패스 1243" d="M216.123,65.462l3.236-15.533L214.524,35.5,177.9,62.683,191.986,74.6,211.9,80.424l4.416-5.14-1.9-1.371,3.046-2.779-2.36-1.827,3.046-2.322Z" transform="translate(-122.278 -35.5)" fill="#763d16" stroke="#763d16" stroke-linecap="round" stroke-linejoin="round" stroke-width="1"/>
      <path id="패스_1244" data-name="패스 1244" d="M31.8,49.929l3.236,15.533L32.98,66.985l3.046,2.322L33.7,71.135l3.046,2.779-1.9,1.371,4.378,5.14L59.135,74.6,73.221,62.683,36.6,35.5Z" transform="translate(-31.8 -35.5)" fill="#763d16" stroke="#763d16" stroke-linecap="round" stroke-linejoin="round" stroke-width="1"/>
    </g>
    <path id="패스_1245" data-name="패스 1245" d="M229.981,144.025,210.07,138.2l6.053,9.1L207.1,164.812l11.878-.152h17.7Z" transform="translate(-108.561 -63.601)" fill="#f6851b" stroke="#f6851b" stroke-linecap="round" stroke-linejoin="round" stroke-width="1"/>
    <path id="패스_1246" data-name="패스 1246" d="M60.436,138.2l-19.911,5.825L33.9,164.659H51.565l11.84.152L54.42,147.3Z" transform="translate(-1.301 -63.601)" fill="#f6851b" stroke="#f6851b" stroke-linecap="round" stroke-linejoin="round" stroke-width="1"/>
    <path id="패스_1247" data-name="패스 1247" d="M144.255,103.414l1.256-21.967L151.3,65.8H125.6l5.711,15.647,1.332,21.967.457,6.929.038,17.056h10.546l.076-17.056Z" transform="translate(-58.089 -18.764)" fill="#f6851b" stroke="#f6851b" stroke-linecap="round" stroke-linejoin="round" stroke-width="1"/>
  </g>
</svg>
