<svg xmlns="http://www.w3.org/2000/svg" width="13.5" height="13.5" viewBox="0 0 13.5 13.5"><defs><style>.a,.b{fill:none;stroke:#fff;stroke-width:1.5px;}.b{stroke-miterlimit:10;}</style></defs><g transform="translate(1.75 0.75)"><path class="a" d="M1.594,0H6.406A1.594,1.594,0,0,1,8,1.594V6.406A1.594,1.594,0,0,1,6.406,8H1.594A1.594,1.594,0,0,1,0,6.406V1.594A1.594,1.594,0,0,1,1.594,0Z" transform="translate(-1 4)"/><path class="b" d="M992.778-774.022v-.019a1.6,1.6,0,0,1,1.594-1.595h4.811a1.6,1.6,0,0,1,1.594,1.595v4.811a1.6,1.6,0,0,1-1.594,1.595h-.019" transform="translate(-989.778 775.636)"/></g></svg>