<svg xmlns="http://www.w3.org/2000/svg" width="19" height="19" viewBox="0 0 19 19"><defs><style>.a{fill:#ffffff;}</style></defs><g transform="translate(-345.869 -889.159)"><g transform="translate(350.152 904.007)"><path class="a" d="M350.346,906.916a.236.236,0,0,1-.233-.18.226.226,0,0,1,.187-.264l2.805-.529-1.386-2.36a.218.218,0,0,1,.093-.3.247.247,0,0,1,.323.088l1.543,2.628a.212.212,0,0,1,.008.2.237.237,0,0,1-.169.126l-3.124.589A.249.249,0,0,1,350.346,906.916Z" transform="translate(-349.865 -903.008)"/><path class="a" d="M350.346,907.16a.482.482,0,0,1-.471-.373.459.459,0,0,1,.067-.349.484.484,0,0,1,.312-.205l2.466-.464-1.211-2.062a.456.456,0,0,1-.046-.357.472.472,0,0,1,.237-.287.492.492,0,0,1,.645.18l1.543,2.628a.453.453,0,0,1,.016.433.481.481,0,0,1-.344.258Zm1.579-3.67,1.544,2.594h0Z" transform="translate(-349.865 -903.008)"/></g><g transform="translate(345.869 889.159)"><path class="a" d="M353.441,890.809a.482.482,0,0,0,.318-.209.5.5,0,0,0,.075-.365.486.486,0,0,0-.555-.4,8.978,8.978,0,0,0-4.882,2.57,8.827,8.827,0,0,0,.224,12.588,8.977,8.977,0,0,0,4.651,2.347l.089.01a.486.486,0,0,0,.473-.4.5.5,0,0,0-.074-.364.484.484,0,0,0-.318-.212,8.045,8.045,0,0,1-4.166-2.1,7.825,7.825,0,0,1-.2-11.168A8.026,8.026,0,0,1,353.441,890.809Z" transform="translate(-345.869 -889.159)"/><path class="a" d="M361.113,892.219a8.973,8.973,0,0,0-2.888-1.819l1.363-.268a.485.485,0,0,0,.314-.218.5.5,0,0,0,.066-.365.488.488,0,0,0-.563-.383l-3.122.615a.484.484,0,0,0-.344.271.492.492,0,0,0-.039.259.5.5,0,0,0,.073.322.485.485,0,0,0,.121.122l1.4,2.5a.48.48,0,0,0,.417.247.473.473,0,0,0,.226-.057.492.492,0,0,0,.237-.3.5.5,0,0,0-.046-.377l-.92-1.633a8.027,8.027,0,0,1,3.045,1.814,7.785,7.785,0,0,1,.2,11.143,8.022,8.022,0,0,1-4.366,2.29.481.481,0,0,0-.318.212.5.5,0,0,0-.073.362.484.484,0,0,0,.473.4l.081-.007a8.976,8.976,0,0,0,4.883-2.563,8.786,8.786,0,0,0-.224-12.56Z" transform="translate(-344.868 -889.159)"/></g></g></svg>
