<svg xmlns="http://www.w3.org/2000/svg" width="20" height="18.5" viewBox="0 0 20 18.5"><defs><style>.a{fill:#fff;}</style></defs><path class="a" d="M51.173,43.678,50.78,43.4l.627-.571-.486-.376.627-.477-.416-.313.667-3.193-1-2.966-6.361,2.371H39.157L32.788,35.5,31.8,38.466l.667,3.193-.424.313.627.477-.478.376.627.571-.392.282.9,1.056-1.365,4.242L33.235,53.3l4.447-1.221.863.7L40.294,54h3l1.757-1.213.863-.7-.369-3.076h0l.364,3.076L50.365,53.3l1.278-4.328-1.38-4.242ZM37.98,47.215l1.569-.712.643,1.362Zm5.294,5.134H40.318l-.18.172.2-1.729.376-.258h2.173l.376.258.212,1.729Zm.133-4.484.651-1.362,1.569.712Z" transform="translate(-31.8 -35.5)"/></svg>