<svg xmlns="http://www.w3.org/2000/svg" width="20" height="20" viewBox="0 0 20 20"><defs><style>.a,.b,.d{fill:none;}.a,.b{stroke:#272727;}.b{stroke-miterlimit:10;}.c{stroke:none;}</style></defs><g transform="translate(42.5 -5.5)"><g transform="translate(-32.9 5.5)"><g class="a" transform="translate(0)"><circle class="c" cx="5.2" cy="5.2" r="5.2"/><circle class="d" cx="5.2" cy="5.2" r="4.7"/></g><line class="a" x2="4.8" transform="translate(2.8 5.307)"/><line class="a" y2="4.8" transform="translate(5.2 2.907)"/></g><g transform="translate(-42 6)"><path class="b" d="M267.15,252.271h-2.6a2,2,0,0,1-2-2v-.661" transform="translate(-259.769 -246.867)"/><path class="b" d="M268.049,246H263.2a4.309,4.309,0,0,0-4.308,4.309v10.382A4.308,4.308,0,0,0,263.2,265h13.83a.861.861,0,0,0,.862-.862v-3.867" transform="translate(-258.889 -246)"/><path class="a" d="M0,0H2.439" transform="translate(4.785 2.843)"/><line class="b" x1="8.627" transform="translate(10.373 11.991)"/></g></g></svg>