<svg xmlns="http://www.w3.org/2000/svg" width="10" height="12" viewBox="0 0 10 12">
  <g id="ico_resume" transform="translate(10) rotate(90)" fill="none">
    <path d="M5.143,1.429a1,1,0,0,1,1.715,0l4.234,7.056A1,1,0,0,1,10.234,10H1.766A1,1,0,0,1,.909,8.486Z" stroke="none"/>
    <path d="M 5.999844551086426 1.943916320800781 L 1.766189575195313 8.999998092651367 L 10.23380947113037 9.000007629394531 L 5.999844551086426 1.943916320800781 M 5.999999523162842 0.9436531066894531 C 6.331644535064697 0.9436531066894531 6.663289546966553 1.105487823486328 6.857489585876465 1.429158210754395 L 11.09129905700684 8.485507965087891 C 11.49121952056885 9.15202808380127 11.01109981536865 9.999998092651367 10.23380947113037 9.999998092651367 L 1.766189575195313 9.999998092651367 C 0.9888992309570313 9.999998092651367 0.5087795257568359 9.15202808380127 0.9086999893188477 8.485507965087891 L 5.142509460449219 1.429158210754395 C 5.336709499359131 1.105487823486328 5.668354511260986 0.9436531066894531 5.999999523162842 0.9436531066894531 Z" stroke="none" fill="#929292"/>
  </g>
</svg>
