<svg xmlns="http://www.w3.org/2000/svg" width="50" height="44" viewBox="0 0 50 44"><defs><style>.a,.b,.d{fill:#fff;}.b{stroke-miterlimit:10;}.c,.d{stroke:none;}</style></defs><g transform="translate(-653.596 -1136.228)"><path class="a" d="M666.417,1158.1a9.748,9.748,0,0,0,6.941-2.876.613.613,0,0,0-.868-.867,8.589,8.589,0,1,1-6.073-14.662,8.621,8.621,0,0,1,1.259.091.614.614,0,1,0,.179-1.215,10.079,10.079,0,0,0-1.438-.1,9.817,9.817,0,0,0,0,19.633Z"/><path class="a" d="M654.21,1178.34H662.6a.613.613,0,1,0,0-1.227h-7.776v-7.658a11.265,11.265,0,0,1,11.145-11.358,11.138,11.138,0,0,1,1.874.159.613.613,0,1,0,.209-1.209,12.259,12.259,0,0,0-2.083-.178,12.494,12.494,0,0,0-12.372,12.586v8.271A.613.613,0,0,0,654.21,1178.34Z" transform="translate(0 -0.278)"/><path class="a" d="M683.5,1157.957a10.865,10.865,0,1,1,10.864-10.865A10.876,10.876,0,0,1,683.5,1157.957Zm0-20.5a9.636,9.636,0,1,0,9.637,9.636A9.647,9.647,0,0,0,683.5,1137.456Z" transform="translate(1.068)"/><path class="a" d="M689.162,1180.506H670.431a.613.613,0,0,1-.614-.614v-9.214a13.951,13.951,0,0,1,26.411-6.272.613.613,0,1,1-1.1.552,12.724,12.724,0,0,0-24.089,5.72v8.6h18.118a.614.614,0,0,1,0,1.228Z" transform="translate(1.519 -0.278)"/><g transform="translate(691.596 1167.18)"><g class="b" transform="translate(-692.077 -1168.482)"><path class="c" d="M 702.465576171875 1175.594970703125 L 691.6884765625 1175.594970703125 C 691.0756225585938 1175.594970703125 690.5770263671875 1175.095703125 690.5770263671875 1174.482055664063 C 690.5770263671875 1173.867797851563 691.0756225585938 1173.368041992188 691.6884765625 1173.368041992188 L 702.465576171875 1173.368041992188 C 703.0784301757813 1173.368041992188 703.5770263671875 1173.867797851563 703.5770263671875 1174.482055664063 C 703.5770263671875 1175.095703125 703.0784301757813 1175.594970703125 702.465576171875 1175.594970703125 Z"/><path class="d" d="M 702.465576171875 1175.094970703125 C 702.8031616210938 1175.094970703125 703.0770263671875 1174.821044921875 703.0770263671875 1174.482055664063 C 703.0770263671875 1174.141967773438 702.8031616210938 1173.868041992188 702.465576171875 1173.868041992188 L 691.6884765625 1173.868041992188 C 691.3508911132813 1173.868041992188 691.0770263671875 1174.141967773438 691.0770263671875 1174.482055664063 C 691.0770263671875 1174.821044921875 691.3508911132813 1175.094970703125 691.6884765625 1175.094970703125 L 702.465576171875 1175.094970703125 M 702.465576171875 1176.094970703125 L 691.6884765625 1176.094970703125 C 690.7999267578125 1176.094970703125 690.0770263671875 1175.371459960938 690.0770263671875 1174.482055664063 C 690.0770263671875 1173.592041015625 690.7999267578125 1172.868041992188 691.6884765625 1172.868041992188 L 702.465576171875 1172.868041992188 C 703.3541259765625 1172.868041992188 704.0770263671875 1173.592041015625 704.0770263671875 1174.482055664063 C 704.0770263671875 1175.371459960938 703.3541259765625 1176.094970703125 702.465576171875 1176.094970703125 Z"/></g><g class="b" transform="translate(-692.102 -1168.458)"><path class="c" d="M 697.1019897460938 1180.9580078125 C 696.4877319335938 1180.9580078125 695.9879760742188 1180.459350585938 695.9879760742188 1179.846435546875 L 695.9879760742188 1169.068603515625 C 695.9879760742188 1168.456176757813 696.4877319335938 1167.9580078125 697.1019897460938 1167.9580078125 C 697.7156982421875 1167.9580078125 698.2150268554688 1168.456176757813 698.2150268554688 1169.068603515625 L 698.2150268554688 1179.846435546875 C 698.2150268554688 1180.459350585938 697.7156982421875 1180.9580078125 697.1019897460938 1180.9580078125 Z"/><path class="d" d="M 697.1019897460938 1180.4580078125 C 697.4409790039063 1180.4580078125 697.7150268554688 1180.185180664063 697.7150268554688 1179.846435546875 L 697.7150268554688 1169.068603515625 C 697.7150268554688 1168.73095703125 697.4409790039063 1168.4580078125 697.1019897460938 1168.4580078125 C 696.7630004882813 1168.4580078125 696.4879760742188 1168.73095703125 696.4879760742188 1169.068603515625 L 696.4879760742188 1179.846435546875 C 696.4879760742188 1180.185180664063 696.7630004882813 1180.4580078125 697.1019897460938 1180.4580078125 M 697.1019897460938 1181.4580078125 C 696.2120361328125 1181.4580078125 695.4879760742188 1180.735107421875 695.4879760742188 1179.846435546875 L 695.4879760742188 1169.068603515625 C 695.4879760742188 1168.180541992188 696.2120361328125 1167.4580078125 697.1019897460938 1167.4580078125 C 697.9913940429688 1167.4580078125 698.7150268554688 1168.180541992188 698.7150268554688 1169.068603515625 L 698.7150268554688 1179.846435546875 C 698.7150268554688 1180.735107421875 697.9913940429688 1181.4580078125 697.1019897460938 1181.4580078125 Z"/></g></g></g></svg>