<svg xmlns="http://www.w3.org/2000/svg" width="19" height="19" viewBox="0 0 19 19"><defs><style>.a{fill:#ffffff;}</style></defs><g transform="translate(-582.077 89.181)"><path class="a" d="M599.709-79.039v1.762h-2.148v-1.762h-5.27v8.81h1.26v-5.286H595.8v1.762h5.27v-5.286"/><path class="a" d="M589.4-80.371h-5.856a1.468,1.468,0,0,1-1.464-1.468v-5.873a1.468,1.468,0,0,1,1.464-1.469H589.4a1.467,1.467,0,0,1,1.463,1.469v5.873A1.467,1.467,0,0,1,589.4-80.371ZM583.541-88.2a.49.49,0,0,0-.488.49v5.873a.489.489,0,0,0,.488.489H589.4a.49.49,0,0,0,.488-.489v-5.873a.49.49,0,0,0-.488-.49Z"/><rect class="a" width="2.928" height="2.937" rx="0.5" transform="translate(585.005 -86.244)"/><path class="a" d="M589.4-70.229h-5.856a1.468,1.468,0,0,1-1.464-1.468v-5.874a1.468,1.468,0,0,1,1.464-1.468H589.4a1.467,1.467,0,0,1,1.463,1.468V-71.7A1.467,1.467,0,0,1,589.4-70.229Zm-5.856-7.831a.489.489,0,0,0-.488.489V-71.7a.489.489,0,0,0,.488.489H589.4a.49.49,0,0,0,.488-.489v-5.874a.49.49,0,0,0-.488-.489Z"/><rect class="a" width="2.928" height="2.937" rx="0.5" transform="translate(585.005 -76.102)"/><path class="a" d="M599.61-80.371h-5.856a1.467,1.467,0,0,1-1.463-1.468v-5.873a1.467,1.467,0,0,1,1.463-1.469h5.856a1.468,1.468,0,0,1,1.464,1.469v5.873A1.468,1.468,0,0,1,599.61-80.371ZM593.754-88.2a.49.49,0,0,0-.488.49v5.873a.49.49,0,0,0,.488.489h5.856a.489.489,0,0,0,.488-.489v-5.873a.49.49,0,0,0-.488-.49Z"/><rect class="a" width="2.928" height="2.937" rx="0.5" transform="translate(595.218 -86.244)"/><rect class="a" width="2.048" height="2.055" transform="translate(595.854 -72.235)"/><rect class="a" width="2.048" height="2.055" transform="translate(599.029 -72.235)"/></g></svg>
