<svg xmlns="http://www.w3.org/2000/svg" width="19" height="19" viewBox="0 0 19 19"><defs><style>.a{fill:#ffffff;}.b{fill:none;}</style></defs><g transform="translate(-551.5 64.68)"><path class="a" d="M566.72-55.31H555.28a.52.52,0,0,0-.51.529v8.572a.52.52,0,0,0,.51.529h8.251a.493.493,0,0,0,.2-.042.3.3,0,0,0,.082-.052l3.269-3.378a.54.54,0,0,0,.148-.374v-5.255A.519.519,0,0,0,566.72-55.31ZM565.491-49l-1.45,1.509V-49Zm.72-1.058h-2.68a.52.52,0,0,0-.509.529v2.787h-7.233v-7.513h10.422Z"/><path class="a" d="M566.251-64.68h-10.5a.519.519,0,0,0-.509.529v5.163h1.018v-4.634h9.482v4.634h1.019v-5.163A.52.52,0,0,0,566.251-64.68Z"/><path class="b" d="M566.5-53.689v.715h3.235V-58.95H552.262v5.975h3.27v-.715Z"/><path class="a" d="M569.991-59.752H552.01a.521.521,0,0,0-.51.53v6.52a.521.521,0,0,0,.51.529h2v-1.059h-1.487v-5.461h16.962v5.461h-1.452v1.059h1.962a.521.521,0,0,0,.509-.529v-6.52A.521.521,0,0,0,569.991-59.752Z"/></g></svg>
