<svg xmlns="http://www.w3.org/2000/svg" width="26" height="25" viewBox="0 0 26 25"><defs><style>.a{fill:#858585;}</style></defs><g transform="translate(-879.061 -369.286)"><path class="a" d="M885.259,372.914a12.385,12.385,0,0,0-1.033,1.593,13.878,13.878,0,0,0,3.228,1.4c.037-.2.073-.4.114-.59a15.567,15.567,0,0,1,1.67-4.7,6.015,6.015,0,0,1,.79-1.067,7.785,7.785,0,0,0-1.742.707A9.844,9.844,0,0,0,885.259,372.914Z" transform="translate(0.025 -0.003)"/><path class="a" d="M888.071,376.785a32.572,32.572,0,0,0-.381,4.726H896.3a32.292,32.292,0,0,0-.381-4.726,16.951,16.951,0,0,1-7.852,0Z" transform="translate(0.063 -0.081)"/><path class="a" d="M891.87,386.507a16.724,16.724,0,0,1,4.055.494,32.357,32.357,0,0,0,.38-4.72h-8.614a32.829,32.829,0,0,0,.37,4.663A16.712,16.712,0,0,1,891.87,386.507Z" transform="translate(0.063 -0.14)"/><path class="a" d="M882.427,381.493h4.5a33.038,33.038,0,0,1,.4-4.908,14.849,14.849,0,0,1-2.718-1.078c-.236-.123-.466-.251-.69-.386A15.293,15.293,0,0,0,882.427,381.493Z" transform="translate(-0.037 -0.063)"/><path class="a" d="M883.877,388.567a14.736,14.736,0,0,1,3.437-1.451,33.855,33.855,0,0,1-.389-4.836h-4.5A15.344,15.344,0,0,0,883.877,388.567Z" transform="translate(-0.037 -0.139)"/><path class="a" d="M892.77,369.5a1.476,1.476,0,0,0-1.533,0,3.066,3.066,0,0,0-.783.672,8.674,8.674,0,0,0-1.417,2.645,20.4,20.4,0,0,0-.855,3.273,16.3,16.3,0,0,0,7.645,0c-.04-.215-.081-.425-.123-.631a14.958,14.958,0,0,0-1.586-4.485A4.007,4.007,0,0,0,892.77,369.5Z" transform="translate(0.058)"/><path class="a" d="M888.3,388.3a14.977,14.977,0,0,0,1.584,4.485,4.016,4.016,0,0,0,1.35,1.473,1.464,1.464,0,0,0,1.533,0,3,3,0,0,0,.78-.672,8.646,8.646,0,0,0,1.419-2.644,20.464,20.464,0,0,0,.857-3.278,16.289,16.289,0,0,0-7.658-.061Q888.232,387.963,888.3,388.3Z" transform="translate(0.058 -0.192)"/><path class="a" d="M884.678,391.308a12.932,12.932,0,0,1-1.119-1.733,11.381,11.381,0,0,0-1.238.95,12.859,12.859,0,0,0,5.9,3.784c-.1-.049-.2-.1-.3-.152A10.562,10.562,0,0,1,884.678,391.308Z" transform="translate(-0.036 -0.218)"/><path class="a" d="M894.788,393.158a6.212,6.212,0,0,1-.79,1.068,7.912,7.912,0,0,0,1.741-.707,9.832,9.832,0,0,0,3.029-2.66,12.3,12.3,0,0,0,1.017-1.566,13.916,13.916,0,0,0-3.211-1.428q-.055.3-.115.591A15.667,15.667,0,0,1,894.788,393.158Z" transform="translate(0.071 -0.199)"/><path class="a" d="M883.041,373.718c.183.141.373.275.567.407a11.246,11.246,0,0,1,4.319-4.49c.1-.054.2-.1.3-.153a12.855,12.855,0,0,0-5.828,3.7C882.6,373.366,882.815,373.546,883.041,373.718Z" transform="translate(-0.037 -0.002)"/><path class="a" d="M881.887,389.972c.2-.174.4-.346.615-.509.236-.182.484-.354.738-.521a15.994,15.994,0,0,1-1.556-6.662h-2.623A12.788,12.788,0,0,0,881.887,389.972Z" transform="translate(0 -0.139)"/><path class="a" d="M896.1,369.635a10.547,10.547,0,0,1,3.248,2.848,13.137,13.137,0,0,1,1.068,1.644,11.639,11.639,0,0,0,1.214-.945,12.843,12.843,0,0,0-5.828-3.7C895.9,369.532,896,369.581,896.1,369.635Z" transform="translate(0.132 -0.002)"/><path class="a" d="M887.439,387.793a14.243,14.243,0,0,0-2.648,1.046c-.208.107-.412.223-.612.339a10.613,10.613,0,0,0,4.108,4.34,7.828,7.828,0,0,0,1.745.707c-.052-.054-.1-.109-.156-.168a9.3,9.3,0,0,1-1.545-2.864A21.169,21.169,0,0,1,887.439,387.793Z" transform="translate(0.024 -0.199)"/><path class="a" d="M900.758,374.725a15.971,15.971,0,0,1,1.6,6.753h2.624a12.811,12.811,0,0,0-2.895-7.781c-.217.193-.439.381-.671.561C901.205,374.418,900.984,374.572,900.758,374.725Z" transform="translate(0.078 -0.047)"/><path class="a" d="M902.054,390.1a12.8,12.8,0,0,0,2.928-7.824h-2.621a15.973,15.973,0,0,1-1.619,6.788A11.813,11.813,0,0,1,902.054,390.1Z" transform="translate(0.078 -0.139)"/><path class="a" d="M881.682,381.477a15.993,15.993,0,0,1,1.6-6.752,12.431,12.431,0,0,1-1.327-1.029,12.791,12.791,0,0,0-2.894,7.78Z" transform="translate(0 -0.047)"/><path class="a" d="M899.3,388.229c.276.141.545.294.8.451a15.3,15.3,0,0,0,1.509-6.4h-4.5a32.932,32.932,0,0,1-.4,4.907A14.644,14.644,0,0,1,899.3,388.229Z" transform="translate(0.122 -0.139)"/><path class="a" d="M896.1,394.158c-.1.052-.2.1-.3.152a12.87,12.87,0,0,0,5.793-3.657q-.352-.32-.735-.618c-.149-.114-.3-.226-.46-.334A11.25,11.25,0,0,1,896.1,394.158Z" transform="translate(0.132 -0.22)"/><path class="a" d="M894,369.547c.05.054.1.11.153.168a9.3,9.3,0,0,1,1.548,2.864,21.161,21.161,0,0,1,.876,3.33,14.42,14.42,0,0,0,2.535-1.013q.356-.185.694-.388a10.571,10.571,0,0,0-4.064-4.254A7.844,7.844,0,0,0,894,369.547Z" transform="translate(0.071 -0.003)"/><path class="a" d="M897.111,381.493h4.5a15.318,15.318,0,0,0-1.494-6.375,14.494,14.494,0,0,1-3.407,1.465A33.209,33.209,0,0,1,897.111,381.493Z" transform="translate(0.123 -0.063)"/></g></svg>