<svg xmlns="http://www.w3.org/2000/svg" width="21.999" height="21.999" viewBox="0 0 21.999 21.999"><defs><style>.a{fill:none;stroke-miterlimit:10;opacity:1;}.b,.c{stroke:none;}.c{fill:#fff;}</style></defs><g class="a" transform="translate(-420.593 -149.504)"><path class="b" d="M441.555,165.438l-5.8-5.8a7.756,7.756,0,0,0-10.824-9.329L429,154.377a2.5,2.5,0,0,1-3.534,3.534l-4.068-4.068a7.761,7.761,0,0,0,9.329,10.824l5.8,5.8a3.555,3.555,0,0,0,5.028-5.028Z"/><path class="c" d="M 439.0413818359375 170.5032501220703 C 439.7266845703125 170.5032501220703 440.3681640625 170.2389984130859 440.8478698730469 169.7589111328125 C 441.8442077636719 168.7625732421875 441.8442077636719 167.1414337158203 440.8478088378906 166.1450500488281 L 435.048828125 160.3450317382813 L 434.6177978515625 159.9139251708984 L 434.8035583496094 159.3332824707031 C 435.0175170898438 158.6645355224609 435.1260070800781 157.9703369140625 435.1260070800781 157.2700042724609 C 435.1260070800781 153.5392150878906 432.0907897949219 150.5039978027344 428.3599853515625 150.5039978027344 C 427.80908203125 150.5039978027344 427.2676696777344 150.5704956054688 426.7397766113281 150.7025604248047 L 429.7071228027344 153.6698913574219 C 431.0713195800781 155.0341186523438 431.0713195800781 157.2538757324219 429.7067565917969 158.6184539794922 C 429.0478210449219 159.2767333984375 428.1693115234375 159.6392517089844 427.2330017089844 159.6392517089844 C 426.2967224121094 159.6392517089844 425.4181823730469 159.2767333984375 424.7588806152344 158.6181030273438 L 421.79150390625 155.6507110595703 C 421.6594848632813 156.1783752441406 421.5929870605469 156.7194976806641 421.5929870605469 157.2700042724609 C 421.5929870605469 161.0013427734375 424.6286315917969 164.0370025634766 428.3599853515625 164.0370025634766 C 429.0577697753906 164.0370025634766 429.7518920898438 163.9284210205078 430.4230651855469 163.7143096923828 L 431.0033264160156 163.5292053222656 L 431.4340209960938 163.9598388671875 L 437.234130859375 169.7588958740234 C 437.714111328125 170.2388916015625 438.35595703125 170.5032501220703 439.0413818359375 170.5032501220703 M 439.0413818359375 171.5032501220703 C 438.1300048828125 171.5032501220703 437.218505859375 171.1575012207031 436.5270080566406 170.4660034179688 L 430.7269897460938 164.6670074462891 C 429.9809875488281 164.9049987792969 429.1860046386719 165.0370025634766 428.3599853515625 165.0370025634766 C 424.0700073242188 165.0370025634766 420.5929870605469 161.5599975585938 420.5929870605469 157.2700042724609 C 420.5929870605469 156.0379943847656 420.8869934082031 154.8780059814453 421.3980102539063 153.8430023193359 L 425.4660034179688 157.9109954833984 C 425.9519958496094 158.3964996337891 426.5924987792969 158.6392517089844 427.2330017089844 158.6392517089844 C 427.8735046386719 158.6392517089844 428.5140075683594 158.3964996337891 429 157.9109954833984 C 429.9719848632813 156.9389953613281 429.9719848632813 155.3489990234375 429 154.3769989013672 L 424.9320068359375 150.3090057373047 C 425.9670104980469 149.7980041503906 427.1279907226563 149.5039978027344 428.3599853515625 149.5039978027344 C 432.6489868164063 149.5039978027344 436.1260070800781 152.9810028076172 436.1260070800781 157.2700042724609 C 436.1260070800781 158.0959930419922 435.9949951171875 158.8910064697266 435.7560119628906 159.6380004882813 L 441.5549926757813 165.4380035400391 C 442.93798828125 166.8209991455078 442.93798828125 169.0829925537109 441.5549926757813 170.4660034179688 C 440.8639831542969 171.1575012207031 439.9527587890625 171.5032501220703 439.0413818359375 171.5032501220703 Z"/></g></svg>
