<svg xmlns="http://www.w3.org/2000/svg" width="50" height="44" viewBox="0 0 50 44"><defs><style>.a,.b,.d{fill:#fff;}.b{stroke-miterlimit:10;}.c,.d{stroke:none;}</style></defs><g transform="translate(-726.632 -1135.958)"><path class="a" d="M739.454,1157.7a9.785,9.785,0,0,0,6.941-2.857.609.609,0,0,0,0-.863.618.618,0,0,0-.868,0,8.562,8.562,0,1,1-6.073-14.57,8.812,8.812,0,0,1,1.259.09.61.61,0,1,0,.179-1.206,9.993,9.993,0,0,0-1.438-.1,9.755,9.755,0,1,0,0,19.509Z" transform="translate(0 -0.014)"/><path class="a" d="M727.246,1177.935h8.39a.61.61,0,1,0,0-1.22H727.86v-7.61a11.145,11.145,0,0,1,13.019-11.128.61.61,0,1,0,.209-1.2,12.378,12.378,0,0,0-14.456,12.33v8.22A.611.611,0,0,0,727.246,1177.935Z" transform="translate(0 -0.13)"/><path class="a" d="M756.54,1157.551a10.8,10.8,0,1,1,10.865-10.8A10.843,10.843,0,0,1,756.54,1157.551Zm0-20.373a9.577,9.577,0,1,0,9.637,9.576A9.617,9.617,0,0,0,756.54,1137.177Z" transform="translate(-1.23)"/><path class="a" d="M762.2,1180.087H743.467a.611.611,0,0,1-.613-.61v-9.156a13.966,13.966,0,0,1,26.411-6.234.608.608,0,0,1-.272.82.615.615,0,0,1-.824-.27,12.738,12.738,0,0,0-24.088,5.684v8.546H762.2a.61.61,0,1,1,0,1.22Z" transform="translate(-1.252 -0.129)"/><g class="b" transform="translate(-1.883 -0.185)"><path class="c" d="M 766.7739868164063 1178.68701171875 C 766.7379150390625 1178.68701171875 766.7025146484375 1178.685302734375 766.665771484375 1178.681884765625 C 766.3035278320313 1178.645751953125 765.98291015625 1178.4375 765.8046264648438 1178.124633789063 L 762.791748046875 1172.794799804688 C 762.6456298828125 1172.536743164063 762.6093139648438 1172.236938476563 762.6895751953125 1171.950927734375 C 762.7701416015625 1171.664184570313 762.9580078125 1171.426391601563 763.21875 1171.281127929688 C 763.3837280273438 1171.18896484375 763.5714721679688 1171.140014648438 763.7609252929688 1171.140014648438 C 764.16259765625 1171.140014648438 764.5347290039063 1171.356567382813 764.7321166992188 1171.705200195313 L 766.9708251953125 1175.663208007813 L 776.0614624023438 1165.260620117188 C 776.27197265625 1165.018432617188 776.578369140625 1164.879028320313 776.9012451171875 1164.879028320313 C 777.1693115234375 1164.879028320313 777.4285278320313 1164.9755859375 777.6311645507813 1165.151000976563 C 777.855712890625 1165.344482421875 777.9913940429688 1165.614379882813 778.012451171875 1165.910400390625 C 778.0335083007813 1166.20654296875 777.9373779296875 1166.4931640625 777.7417602539063 1166.717407226563 L 767.614501953125 1178.306396484375 C 767.4014282226563 1178.548706054688 767.095458984375 1178.68701171875 766.7739868164063 1178.68701171875 Z"/><path class="d" d="M 776.9012451171875 1165.379028320313 C 776.7296752929688 1165.37890625 776.5591430664063 1165.4501953125 776.43798828125 1165.589599609375 L 766.8829956054688 1176.523559570313 L 764.2969970703125 1171.951538085938 C 764.1842651367188 1171.75244140625 763.9755859375 1171.640014648438 763.7609252929688 1171.640014648438 C 763.659423828125 1171.640014648438 763.556640625 1171.6650390625 763.4619750976563 1171.718017578125 C 763.166015625 1171.8828125 763.0609741210938 1172.255493164063 763.2269897460938 1172.548706054688 L 766.239013671875 1177.877075195313 C 766.3369750976563 1178.048950195313 766.5130004882813 1178.164184570313 766.7119750976563 1178.18408203125 C 766.7329711914063 1178.18603515625 766.7529907226563 1178.18701171875 766.7739868164063 1178.18701171875 C 766.9509887695313 1178.18701171875 767.1199951171875 1178.111572265625 767.2379760742188 1177.977416992188 L 777.364990234375 1166.388671875 C 777.5869750976563 1166.13427734375 777.5599975585938 1165.749633789063 777.3040161132813 1165.529052734375 C 777.1876831054688 1165.428344726563 777.0441284179688 1165.379028320313 776.9012451171875 1165.379028320313 M 776.9011840820313 1164.379028320313 L 776.9012451171875 1164.379028320313 C 777.2894287109375 1164.379028320313 777.6648559570313 1164.518920898438 777.9583740234375 1164.772827148438 C 778.28369140625 1165.05322265625 778.4805908203125 1165.445068359375 778.5111694335938 1165.874877929688 C 778.5418090820313 1166.304931640625 778.40234375 1166.720825195313 778.1184692382813 1167.046142578125 L 767.990966796875 1178.635375976563 C 767.6819458007813 1178.98681640625 767.2391357421875 1179.18701171875 766.7739868164063 1179.18701171875 C 766.7222900390625 1179.18701171875 766.6718139648438 1179.184692382813 766.6195068359375 1179.179809570313 L 766.615966796875 1179.179443359375 L 766.6124267578125 1179.179077148438 C 766.0929565429688 1179.127197265625 765.6285400390625 1178.825561523438 765.3702392578125 1178.372192382813 L 762.3564453125 1173.040771484375 C 762.1444091796875 1172.666259765625 762.0916137695313 1172.23095703125 762.2081909179688 1171.815795898438 C 762.3250122070313 1171.399780273438 762.5975341796875 1171.054809570313 762.9754638671875 1170.844360351563 C 763.2141723632813 1170.7109375 763.4862670898438 1170.640014648438 763.7609252929688 1170.640014648438 C 764.3423461914063 1170.640014648438 764.8812255859375 1170.953735351563 765.1671752929688 1171.458862304688 L 767.0586547851563 1174.802856445313 L 775.6849975585938 1164.931518554688 C 775.9896240234375 1164.5810546875 776.4335327148438 1164.379028320313 776.9011840820313 1164.379028320313 Z"/></g></g></svg>