<svg xmlns="http://www.w3.org/2000/svg" width="25" height="21" viewBox="0 0 25 21"><defs><style>.a{fill:#858585;}</style></defs><path class="a" d="M421.457,461.535a.743.743,0,0,0-.271.052L397.7,470.728a.781.781,0,0,0,.026,1.458l5.445,1.885,3.284,6.732,0,.005.009.018h0a.355.355,0,0,0,.316.2.34.34,0,0,0,.226-.087l3.076-2.672-3.434-2.67.269,3.507-2.469-5.236,13.124-8.075-10.923,9.8,8.5,6.61a1.506,1.506,0,0,0,.931.324,1.553,1.553,0,0,0,1.506-1.2l4.6-18.834A.773.773,0,0,0,421.457,461.535Z" transform="translate(-397.211 -461.535)"/></svg>