<svg xmlns="http://www.w3.org/2000/svg" width="26" height="26" viewBox="0 0 26 26"><defs><style>.a{fill:none;stroke:#fff;stroke-miterlimit:10;}</style></defs><g transform="translate(-211.894 -245.5)"><path class="a" d="M236.621,256.037H235.37a1.875,1.875,0,0,1-1.326-3.2l.884-.885a.774.774,0,0,0,0-1.094l-2.39-2.39a.773.773,0,0,0-1.093,0l-.885.885a1.875,1.875,0,0,1-3.2-1.326v-1.251a.775.775,0,0,0-.774-.774H223.2a.774.774,0,0,0-.773.774v1.251a1.875,1.875,0,0,1-3.2,1.326l-.885-.885a.773.773,0,0,0-1.093,0l-2.39,2.39a.774.774,0,0,0,0,1.094l.884.885a1.875,1.875,0,0,1-1.326,3.2h-1.251a.774.774,0,0,0-.774.773v3.38a.775.775,0,0,0,.774.774h1.251a1.875,1.875,0,0,1,1.326,3.2l-.884.885a.773.773,0,0,0,0,1.093l2.39,2.39a.773.773,0,0,0,1.093,0l.885-.885a1.876,1.876,0,0,1,3.2,1.327v1.251a.773.773,0,0,0,.773.773h3.38a.774.774,0,0,0,.774-.773v-1.251a1.876,1.876,0,0,1,3.2-1.327l.885.885a.773.773,0,0,0,1.093,0l2.39-2.39a.773.773,0,0,0,0-1.093l-.884-.885a1.875,1.875,0,0,1,1.326-3.2h1.251a.774.774,0,0,0,.773-.774v-3.38A.773.773,0,0,0,236.621,256.037Z"/><circle class="a" cx="3.277" cy="3.277" r="3.277" transform="translate(221.617 255.223)"/></g></svg>