<svg xmlns="http://www.w3.org/2000/svg" width="20" height="20" viewBox="0 0 20 20"><defs><style>.a{fill:none;stroke:#fff;stroke-miterlimit:10;}</style></defs><g transform="translate(-112.362 -35.189)"><path class="a" d="M115.717,44.714l-1.577-1.577a4.361,4.361,0,0,1,0-6.17h0a4.363,4.363,0,0,1,6.17,0l10.274,10.275a4.361,4.361,0,0,1,0,6.17h0a4.363,4.363,0,0,1-6.17,0l-5.132-5.133" transform="translate(0 0)"/><path class="a" d="M119.573,48.671a3,3,0,0,1,0-4.243h0a3,3,0,0,1,4.243,0l2.928,2.928" transform="translate(-0.291 -0.393)"/></g></svg>