<svg xmlns="http://www.w3.org/2000/svg" width="20" height="25" viewBox="0 0 20 25"><defs><style>.a{fill:#c3ab41;}</style></defs><g transform="translate(0 0)"><path class="a" d="M173.217,90.271a9.123,9.123,0,0,1,6.753,8.5c0,5.233-4.445,8.95-9.931,8.95a10.4,10.4,0,0,1-7.424-3.007c-.21-.211-.394-.43-.661-.7a10.221,10.221,0,0,0,8.382,4.078c5.6,0,10.14-3.916,10.14-9.253,0-5.013-4.179-9.018-9.451-9.279-.235-.011-.472-.014-.709-.011a8.284,8.284,0,0,0-3.341.633,11.028,11.028,0,0,1,2.977-.36A10.319,10.319,0,0,1,173.217,90.271Z" transform="translate(-160.477 -83.089)"/><path class="a" d="M173.33,91.275a8.475,8.475,0,0,1,6.242,7.916c0,4.9-4.1,8.335-9.187,8.335a9.616,9.616,0,0,1-6.881-2.8c-.194-.2-.365-.4-.615-.654a9.466,9.466,0,0,0,7.772,3.8c5.191,0,9.4-3.613,9.4-8.617A8.93,8.93,0,0,0,171.3,90.6c-.218-.01-.437-.013-.66-.01a7.938,7.938,0,0,0-3.616.789,12.818,12.818,0,0,1,3.281-.526A9.612,9.612,0,0,1,173.33,91.275Z" transform="translate(-160.864 -83.53)"/><path class="a" d="M173.493,92.32a7.82,7.82,0,0,1,5.715,7.343c0,4.513-3.745,7.735-8.425,7.735a8.815,8.815,0,0,1-6.335-2.6c-.177-.182-.336-.371-.565-.6a8.69,8.69,0,0,0,7.154,3.523c4.777,0,8.651-3.4,8.651-7.995a8.238,8.238,0,0,0-8.063-8.042c-.2-.011-.4-.009-.606-.011a7.6,7.6,0,0,0-3.759.921,9.615,9.615,0,0,1,6.233-.271Z" transform="translate(-161.276 -83.986)"/><path class="a" d="M173.642,93.343a7.173,7.173,0,0,1,5.2,6.774c0,4.183-3.4,7.137-7.678,7.137a8.046,8.046,0,0,1-5.8-2.4c-.164-.17-.307-.343-.517-.559a7.928,7.928,0,0,0,6.547,3.25c4.374,0,7.92-3.144,7.92-7.376a7.56,7.56,0,0,0-7.382-7.422c-.182-.01-.367-.009-.553-.01a7.719,7.719,0,0,0-3.762,1.013,8.747,8.747,0,0,1,3.478-.774A8.4,8.4,0,0,1,173.642,93.343Z" transform="translate(-161.675 -84.437)"/><path class="a" d="M173.848,94.41a6.5,6.5,0,0,1,4.658,6.177c0,3.841-3.03,6.506-6.9,6.506a7.226,7.226,0,0,1-5.235-2.185c-.146-.153-.279-.312-.467-.51a7.145,7.145,0,0,0,5.914,2.966c3.948,0,7.154-2.805,7.154-6.726a6.855,6.855,0,0,0-6.667-6.773c-.166-.009-.332,0-.5-.009a6.259,6.259,0,0,0-3.676,1.1,7.16,7.16,0,0,1,3.419-.871A7.548,7.548,0,0,1,173.848,94.41Z" transform="translate(-162.113 -84.907)"/><path class="a" d="M173.944,95.412a5.908,5.908,0,0,1-2.021,11.546,6.494,6.494,0,0,1-4.722-1.988c-.132-.142-.249-.284-.422-.465a6.429,6.429,0,0,0,5.333,2.7,6.154,6.154,0,1,0,.439-12.3c-.149-.008-.3,0-.45-.008a5.781,5.781,0,0,0-3.426,1.085,6.366,6.366,0,0,1,3.193-.871A6.683,6.683,0,0,1,173.944,95.412Z" transform="translate(-162.476 -85.347)"/><path class="a" d="M174.151,96.463a5.3,5.3,0,0,1-1.786,10.336,5.7,5.7,0,0,1-4.173-1.781c-.117-.125-.221-.255-.371-.415a5.646,5.646,0,0,0,4.709,2.416,5.509,5.509,0,0,0,.388-11.011c-.131-.008-.265,0-.4-.008a5.4,5.4,0,0,0-3.125,1.028,5.978,5.978,0,0,1,2.921-.833A5.86,5.86,0,0,1,174.151,96.463Z" transform="translate(-162.907 -85.812)"/><path class="a" d="M174.3,97.525a4.693,4.693,0,0,1-1.569,9.126,4.976,4.976,0,0,1-3.655-1.572c-.1-.11-.2-.225-.328-.367a4.945,4.945,0,0,0,4.131,2.133,4.877,4.877,0,0,0,.34-9.748c-.116-.006-.232,0-.35-.006a4.713,4.713,0,0,0-2.738.934,5.065,5.065,0,0,1,4.169-.5Z" transform="translate(-163.291 -86.272)"/><path class="a" d="M166.694,96.2a9.122,9.122,0,0,1-6.755-8.5c0-5.234,4.446-8.951,9.931-8.951a10.406,10.406,0,0,1,7.424,3.007c.209.211.395.43.661.7a10.221,10.221,0,0,0-8.382-4.077c-5.6,0-10.14,3.916-10.14,9.254,0,5.013,4.18,9.019,9.451,9.279.234.01.471.016.709.01a8.273,8.273,0,0,0,3.34-.632,11.037,11.037,0,0,1-2.977.361A10.316,10.316,0,0,1,166.694,96.2Z" transform="translate(-159.432 -78.378)"/><path class="a" d="M167.535,96.112a8.474,8.474,0,0,1-6.24-7.916c0-4.9,4.1-8.336,9.185-8.336a9.612,9.612,0,0,1,6.881,2.8c.193.2.366.4.615.653a9.469,9.469,0,0,0-7.772-3.8c-5.191,0-9.4,3.614-9.4,8.618a8.931,8.931,0,0,0,8.76,8.654c.218.011.436.012.657.011a7.9,7.9,0,0,0,3.616-.79,12.7,12.7,0,0,1-3.279.527A9.612,9.612,0,0,1,167.535,96.112Z" transform="translate(-160.001 -78.858)"/><path class="a" d="M168.338,95.968a7.822,7.822,0,0,1-5.715-7.344c0-4.513,3.746-7.735,8.426-7.735a8.815,8.815,0,0,1,6.334,2.6c.179.18.337.369.564.6a8.69,8.69,0,0,0-7.151-3.525c-4.777,0-8.652,3.4-8.652,8a8.239,8.239,0,0,0,8.063,8.041c.2.011.4.009.6.011a7.59,7.59,0,0,0,3.762-.921,9.631,9.631,0,0,1-6.234.272Z" transform="translate(-160.555 -79.302)"/><path class="a" d="M169.136,95.851a7.171,7.171,0,0,1-5.2-6.774c0-4.184,3.4-7.136,7.677-7.136a8.039,8.039,0,0,1,5.8,2.4c.163.168.308.343.518.558a7.931,7.931,0,0,0-6.546-3.251c-4.376,0-7.922,3.144-7.922,7.378a7.561,7.561,0,0,0,7.381,7.42c.183.011.369.009.554.011a7.735,7.735,0,0,0,3.763-1.015,8.727,8.727,0,0,1-3.478.774A8.4,8.4,0,0,1,169.136,95.851Z" transform="translate(-161.103 -79.756)"/><path class="a" d="M169.921,95.732a6.5,6.5,0,0,1-4.657-6.175c0-3.842,3.031-6.507,6.9-6.507a7.228,7.228,0,0,1,5.235,2.185c.148.154.278.312.467.51a7.145,7.145,0,0,0-5.914-2.965c-3.948,0-7.151,2.8-7.151,6.726a6.852,6.852,0,0,0,6.666,6.771c.166.008.332,0,.5.008a6.25,6.25,0,0,0,3.676-1.095,7.163,7.163,0,0,1-3.42.871A7.593,7.593,0,0,1,169.921,95.732Z" transform="translate(-161.656 -80.235)"/><path class="a" d="M170.732,95.605a5.908,5.908,0,0,1,2.02-11.546,6.491,6.491,0,0,1,4.723,1.989c.134.142.25.284.422.465a6.423,6.423,0,0,0-5.333-2.7,6.154,6.154,0,1,0-.439,12.3c.149.006.3,0,.45.006A5.779,5.779,0,0,0,176,95.035a6.371,6.371,0,0,1-3.195.872A6.7,6.7,0,0,1,170.732,95.605Z" transform="translate(-162.2 -80.671)"/><path class="a" d="M171.5,95.495a5.3,5.3,0,0,1,1.786-10.335,5.7,5.7,0,0,1,4.172,1.78c.118.125.222.254.373.415a5.655,5.655,0,0,0-4.711-2.415,5.509,5.509,0,0,0-.388,11.012c.131.008.265,0,.4.008a5.405,5.405,0,0,0,3.123-1.028,5.99,5.99,0,0,1-2.919.832A5.821,5.821,0,0,1,171.5,95.495Z" transform="translate(-162.74 -81.146)"/><path class="a" d="M172.255,95.355a4.693,4.693,0,0,1,1.566-9.127,4.979,4.979,0,0,1,3.658,1.573c.1.112.2.225.327.367a4.944,4.944,0,0,0-4.131-2.134,4.878,4.878,0,0,0-.34,9.75c.116.006.232,0,.35.006a4.726,4.726,0,0,0,2.738-.934,5.2,5.2,0,0,1-2.559.735A5.091,5.091,0,0,1,172.255,95.355Z" transform="translate(-163.262 -81.608)"/></g></svg>