<svg xmlns="http://www.w3.org/2000/svg" width="11" height="11.339" viewBox="0 0 11 11.339">
  <g id="ico_attach_10" transform="translate(-112.362 -35.02)">
    <path id="패스_1192" data-name="패스 1192" d="M114.364,40.439l-.83-.83a2.3,2.3,0,0,1,0-3.247h0a2.3,2.3,0,0,1,3.247,0l5.407,5.408a2.3,2.3,0,0,1,0,3.247h0a2.3,2.3,0,0,1-3.247,0l-2.7-2.7" fill="none" stroke="#929292" stroke-miterlimit="10" stroke-width="1"/>
    <path id="패스_1193" data-name="패스 1193" d="M119.156,46.245a1.578,1.578,0,0,1,0-2.233h0a1.579,1.579,0,0,1,2.233,0l1.541,1.541" transform="translate(-2.916 -3.93)" fill="none" stroke="#929292" stroke-miterlimit="10" stroke-width="1"/>
  </g>
</svg>
