<svg xmlns="http://www.w3.org/2000/svg" width="18.996" height="19" viewBox="0 0 18.996 19"><defs><style>.a,.b{fill:none;stroke:#fff;}.b{stroke-miterlimit:10;}</style></defs><g transform="translate(0.5 0.5)"><path class="a" d="M2.591,0h7.818A2.591,2.591,0,0,1,13,2.591v7.818A2.591,2.591,0,0,1,10.409,13H2.591A2.591,2.591,0,0,1,0,10.409V2.591A2.591,2.591,0,0,1,2.591,0Z" transform="translate(0 5)"/><path class="b" d="M992.778-773.014v-.031a2.591,2.591,0,0,1,2.59-2.591h7.816a2.591,2.591,0,0,1,2.59,2.591v7.815a2.591,2.591,0,0,1-2.59,2.591h-.031" transform="translate(-987.778 775.636)"/></g></svg>